<svg  xmlns="http://www.w3.org/2000/svg" width="22.987" height="22.987" viewBox="0 0 22.987 22.987">
  <path id="g_translate_FILL1_wght200_GRAD0_opsz24" d="M153.032-795.475l-1.149-3.446h-8.045a2.214,2.214,0,0,1-1.623-.675,2.212,2.212,0,0,1-.675-1.623v-14.934a2.23,2.23,0,0,1,.675-1.628,2.2,2.2,0,0,1,1.623-.681h6.9l1.006,3.446h10.488a2.238,2.238,0,0,1,1.652.646,2.236,2.236,0,0,1,.647,1.651v14.934a2.281,2.281,0,0,1-.647,1.628,2.179,2.179,0,0,1-1.652.68Zm-5.558-8.51a4.376,4.376,0,0,0,3.255-1.279,4.52,4.52,0,0,0,1.263-3.319q0-.3,0-.466a1.025,1.025,0,0,0-.062-.328h-4.566v1.766h2.578a2.307,2.307,0,0,1-.879,1.268,2.626,2.626,0,0,1-1.556.448,2.613,2.613,0,0,1-1.931-.82,2.718,2.718,0,0,1-.807-1.977,2.726,2.726,0,0,1,.8-1.977,2.59,2.59,0,0,1,1.919-.82,2.571,2.571,0,0,1,.967.182,2.518,2.518,0,0,1,.841.571l1.4-1.335a4.426,4.426,0,0,0-1.455-.972,4.589,4.589,0,0,0-1.794-.355,4.46,4.46,0,0,0-3.288,1.378,4.558,4.558,0,0,0-1.365,3.329,4.547,4.547,0,0,0,1.371,3.329A4.494,4.494,0,0,0,147.474-803.985Zm7.679.575.643-.609q-.4-.5-.748-.951a8.662,8.662,0,0,1-.646-.959Zm1.437-1.471a8.678,8.678,0,0,0,1.229-1.8,9.053,9.053,0,0,0,.563-1.358h-4.563l.34,1.215h1.132q.226.434.546.933A9.441,9.441,0,0,0,156.589-804.881Zm-2.408,8.257h8.045a1.1,1.1,0,0,0,.833-.33,1.138,1.138,0,0,0,.316-.818v-14.932a1.145,1.145,0,0,0-.316-.838,1.115,1.115,0,0,0-.833-.321H152.094l1.346,4.665H155.7v-1.21h1.174v1.21h4.2v1.157h-1.47a9.725,9.725,0,0,1-.85,2.121,10.474,10.474,0,0,1-1.348,1.936l3.127,3.085-.828.828-3.119-3.093-1.04,1.047.93,3.195Z" transform="translate(-141.538 818.462)" fill="#192c4e"/>
</svg>
