<svg id="Group_55854" data-name="Group 55854" xmlns="http://www.w3.org/2000/svg" width="24.292" height="21.67" viewBox="0 0 24.292 21.67">
  <path id="Path_33887" data-name="Path 33887" d="M653.477,89.267a17.561,17.561,0,0,1,8.048-5.1,1.032,1.032,0,0,0,.735-.992V80.7a1.265,1.265,0,0,1,2.121-.93l8.887,8.169a1.264,1.264,0,0,1,0,1.86l-8.887,8.169a1.264,1.264,0,0,1-2.121-.93V94.829a1.05,1.05,0,0,0-1.125-1.042,13.1,13.1,0,0,0-10.85,7.073.481.481,0,0,1-.9-.295C649.815,97.208,649.928,93.439,653.477,89.267Z" transform="translate(-649.384 -79.439)" fill="#fff"/>
</svg>
