<svg xmlns="http://www.w3.org/2000/svg" width="14.341" height="14.358" viewBox="0 0 14.341 14.358"><path d="M4.811,3.2a1.779,1.779,0,0,1-.647,1.03c-.215.2-.419.412-.624.615L0,1.309A14.153,14.153,0,0,1,.993.276,1.217,1.217,0,0,1,2.628.361c.613.6,1.216,1.214,1.824,1.821a1.433,1.433,0,0,1,.359.742Z" transform="translate(9.529)" fill="#fff"/><path d="M.33,4.453C.008,4.3-.058,4.146.044,3.79L1.113.048C1.119.028,1.127.007,1.129,0L4.453,3.323l-1.112.317L.588,4.425a.454.454,0,0,0-.062.028Z" transform="translate(0 9.905)" fill="#fff"/><path d="M3.523,10.815,0,7.293,7.286,0l3.531,3.531Z" transform="translate(1.633 1.901)" fill="#fff"/></svg>