<svg xmlns="http://www.w3.org/2000/svg" width="23.641" height="23.451" viewBox="0 0 23.641 23.451">
  <g id="Group_54642" data-name="Group 54642" transform="translate(2284.372 -1764.317)">
    <path id="Path_31070" data-name="Path 31070" d="M-2267.709,1776.49l-1.627.632c.007.021-.009,0-.009-.031.013-.952-.016-1.907.051-2.855a10.3,10.3,0,0,1,2.133-5.588,10.392,10.392,0,0,1,6.487-4.1,10.581,10.581,0,0,1,10.379,3.5,10.055,10.055,0,0,1,2.552,5.534c.131,1,.092,2.026.128,3.04.006.179,0,.358,0,.507l-1.644-.637c0-.169,0-.405,0-.641a10.182,10.182,0,0,0-.241-2.743,8.993,8.993,0,0,0-7.028-6.924,9.18,9.18,0,0,0-10.652,5.923,9.648,9.648,0,0,0-.531,3.2C-2267.709,1775.715-2267.709,1776.126-2267.709,1776.49Z" transform="translate(-14.07)" fill="#192c4e"/>
    <path id="Path_31072" data-name="Path 31072" d="M-2232.4,1954.282c0,1.008,0,2.016,0,3.024a1.19,1.19,0,0,1-1.195,1.266,1.2,1.2,0,0,1-1.181-1.26q0-3.036,0-6.071a1.2,1.2,0,0,1,1.057-1.235,1.183,1.183,0,0,1,1.289.923,1.7,1.7,0,0,1,.03.378Q-2232.4,1952.794-2232.4,1954.282Z" transform="translate(-46.433 -173.863)" fill="#192c4e"/>
    <path id="Path_31073" data-name="Path 31073" d="M-1999.905,1954.272c0-1.039-.006-2.079,0-3.118a1.176,1.176,0,0,1,1.038-1.149,1.18,1.18,0,0,1,1.269.823,1.571,1.571,0,0,1,.062.445q.006,3.011,0,6.021a1.188,1.188,0,0,1-1.736,1.136,1.136,1.136,0,0,1-.636-1.064c0-1.031,0-2.062,0-3.094Z" transform="translate(-266.359 -173.861)" fill="#192c4e"/>
    <path id="Path_31074" data-name="Path 31074" d="M-2120.365,2079.059c-.1.542-.24.652-.763.652-.818,0-1.635,0-2.453,0-.441,0-.64-.2-.643-.638,0-.278,0-.556,0-.834a.533.533,0,0,1,.546-.568q1.37-.016,2.739,0c.338,0,.494.2.565.653h.245c1.453,0,2.907-.034,4.359.011a2.1,2.1,0,0,0,2.283-2.054c.115-.03.236-.063.357-.094s.227-.054.342-.082a2.71,2.71,0,0,1-1.269,2.536,2.8,2.8,0,0,1-1.516.418q-2.251,0-4.5,0Z" transform="translate(-149.952 -291.944)" fill="#192c4e"/>
    <path id="Path_31075" data-name="Path 31075" d="M-1950.857,1975.751v-6.078c1.115.019,2.364,1.5,2.412,2.85A3.115,3.115,0,0,1-1950.857,1975.751Z" transform="translate(-312.287 -192.286)" fill="#192c4e"/>
    <path id="Path_31076" data-name="Path 31076" d="M-2281.96,1975.713a3.106,3.106,0,0,1-2.41-3.2,3.087,3.087,0,0,1,2.41-2.879Z" transform="translate(0 -192.252)" fill="#192c4e"/>
  </g>
</svg>
