<svg id="Group_55573" data-name="Group 55573" xmlns="http://www.w3.org/2000/svg" width="23.974" height="25.876" viewBox="0 0 23.974 25.876">
  <g id="Group_55473" data-name="Group 55473">
    <g id="Group_55472" data-name="Group 55472">
      <path id="Path_33517" data-name="Path 33517" d="M357.8,454.786H341.172a3.678,3.678,0,0,1-3.675-3.675v-12.3a3.7,3.7,0,0,1,1.471-2.942l8.316-6.233a3.681,3.681,0,0,1,4.4,0L360,435.878a3.68,3.68,0,0,1,1.467,2.937v12.3A3.677,3.677,0,0,1,357.8,454.786Zm-8.316-24.549a2.357,2.357,0,0,0-1.4.467l-8.316,6.237a2.356,2.356,0,0,0-.937,1.875v12.3a2.348,2.348,0,0,0,2.346,2.346H357.8a2.351,2.351,0,0,0,2.346-2.346v-12.3a2.357,2.357,0,0,0-.938-1.875l-8.316-6.237A2.36,2.36,0,0,0,349.484,430.237Z" transform="translate(-337.497 -428.91)" fill="#119b37"/>
    </g>
  </g>
  <path id="Path_33525" data-name="Path 33525" d="M338.816,443.478v-7.933a1.075,1.075,0,0,1,.433-.867l5.408-4.058a1.081,1.081,0,0,1,1.3,0l5.408,4.058a1.1,1.1,0,0,1,.433.871v7.929a1.088,1.088,0,0,1-1.083,1.088H339.9A1.085,1.085,0,0,1,338.816,443.478Z" transform="translate(-333.32 -424.185)" fill="#119b37"/>
</svg>
