<svg xmlns="http://www.w3.org/2000/svg" width="22.987" height="22.987" viewBox="0 0 22.987 22.987">
  <path id="logout_FILL1_wght200_GRAD0_opsz24" d="M162.321-777.013a2.248,2.248,0,0,1-1.656-.664,2.248,2.248,0,0,1-.664-1.656v-18.345a2.248,2.248,0,0,1,.664-1.656,2.248,2.248,0,0,1,1.656-.664h9.2v1.437h-9.2a.845.845,0,0,0-.608.276.845.845,0,0,0-.276.608v18.345a.845.845,0,0,0,.276.608.845.845,0,0,0,.608.276h9.2v1.437Zm15.583-6.41-1.008-1.033,3.332-3.332H167.46v-1.437h12.767l-3.332-3.332,1.008-1.033,5.084,5.084Z" transform="translate(-160 800)" fill="#fccb07"/>
</svg>
