<svg xmlns="http://www.w3.org/2000/svg" width="13.021" height="15.633" viewBox="0 0 13.021 15.633">
  <g id="Group_54649" data-name="Group 54649" transform="translate(1828.491 -1319.438)">
    <path id="Path_31066" data-name="Path 31066" d="M-1725.145,1657a6.332,6.332,0,0,1-.885-.306,2.352,2.352,0,0,1-1.216-1.565.547.547,0,0,1-.008-.072h4.768a2.154,2.154,0,0,1-.329.81,2.41,2.41,0,0,1-1.713,1.107.356.356,0,0,0-.069.026Z" transform="translate(-97.108 -321.932)" fill="#fff"/>
    <path id="Path_31067" data-name="Path 31067" d="M-1815.474,1331.209a1.251,1.251,0,0,0-.481-.836,4.169,4.169,0,0,1-1.44-2.918c-.043-.684-.016-1.373-.028-2.06a5.622,5.622,0,0,0-.047-.76,4.549,4.549,0,0,0-3.743-3.821c-.089-.016-.12-.047-.118-.137,0-.2.006-.407,0-.61a.643.643,0,0,0-.654-.629.643.643,0,0,0-.639.628c-.007.193-.008.387,0,.58.005.115-.031.153-.148.173a4.55,4.55,0,0,0-3.758,4.347c-.012.631,0,1.262-.005,1.893a4.409,4.409,0,0,1-.6,2.258,4.349,4.349,0,0,1-.922,1.11,1.12,1.12,0,0,0-.406,1.146,1.135,1.135,0,0,0,1.185.9q2.649,0,5.3,0h3.267c.687,0,1.374,0,2.061,0A1.135,1.135,0,0,0-1815.474,1331.209Zm-3.4-6.337c-.2.01-.335-.141-.343-.38a2.045,2.045,0,0,0-1.479-1.917,2.636,2.636,0,0,0-.525-.082c-.239-.019-.389-.147-.379-.347s.16-.313.4-.307a2.711,2.711,0,0,1,2.637,2.578c0,.02,0,.041,0,.061C-1818.559,1324.713-1818.674,1324.862-1818.871,1324.872Z" transform="translate(0 0)" fill="#fff"/>
  </g>
</svg>
