<svg xmlns="http://www.w3.org/2000/svg" width="23.641" height="21.118" viewBox="0 0 23.641 21.118">
  <path id="Path_31068" data-name="Path 31068" d="M-1705.555,1730.277c1.521,0,3.041,0,4.562,0a2.444,2.444,0,0,1,2.273,1.3q2.284,3.957,4.584,7.906a2.466,2.466,0,0,1,0,2.662q-2.306,3.973-4.6,7.956a2.415,2.415,0,0,1-2.232,1.288q-4.6,0-9.2,0a2.419,2.419,0,0,1-2.235-1.283q-2.3-3.976-4.608-7.949a2.433,2.433,0,0,1,0-2.618q2.31-3.986,4.608-7.979a2.415,2.415,0,0,1,2.231-1.288Zm0,14.545a3.993,3.993,0,0,0,3.983-4.006,3.992,3.992,0,0,0-3.969-3.97,3.992,3.992,0,0,0-4.008,3.956A3.991,3.991,0,0,0-1705.558,1744.822Z" transform="translate(1717.386 -1730.276)" />
</svg>
